<svg data-v-6805eed4="" version="1.0" xmlns="http://www.w3.org/2000/svg" xmlns:xlink="http://www.w3.org/1999/xlink" width="100%" height="100%" preserveAspectRatio="xMidYMid meet" color-interpolation-filters="sRGB" style="margin: auto;" viewBox="0 0 340.000000 250.000000"><g data-v-6805eed4="" class="iconmbgsvg" transform="translate(72.07499694824219,72.5)"><g fill="#000000" hollow-target="textRect"><g mask="url(#6c1a1336-604c-4000-abbb-befb4b7c624c)"><g><rect fill="#000000" fill-opacity="0" stroke-width="2" x="0" y="0" width="105" height="105" class="image-rect"></rect> <svg x="0" y="0" width="105" height="105" filtersec="colorsb45977606" class="image-svg-svg primary" style="overflow: visible;"><svg fill="#000000" xmlns="http://www.w3.org/2000/svg" xmlns:xlink="http://www.w3.org/1999/xlink" version="1.1" x="0px" y="0px" viewBox="10.399999618530273 10.399999618530273 75.19999694824219 75.19999694824219" enable-background="new 0 0 96 96" xml:space="preserve"><path d="M48,85.6c20.7,0,37.6-16.9,37.6-37.6S68.7,10.4,48,10.4S10.4,27.3,10.4,48S27.3,85.6,48,85.6z M48,12.4  c19.6,0,35.6,16,35.6,35.6S67.6,83.6,48,83.6S12.4,67.6,12.4,48S28.4,12.4,48,12.4z"></path><path d="M48,75.4c15.1,0,27.4-12.3,27.4-27.4S63.1,20.6,48,20.6S20.6,32.9,20.6,48S32.9,75.4,48,75.4z M48,22.6  C62,22.6,73.4,34,73.4,48S62,73.4,48,73.4S22.6,62,22.6,48S34,22.6,48,22.6z"></path></svg></svg> <!----></g></g> <g transform="translate(51.150001525878906,35.71500015258789)"><g data-gra="path-name" fill-rule="" class="tp-name"><g transform="scale(1)"><g><path d="M31.85 0Q31.25 0 30.82-0.42L30.82-0.42Q30.38-0.87 30.38-1.48L30.38-1.48 30.38-22.68Q30.38-25.97 28.05-28.29L28.05-28.29Q25.71-30.64 22.44-30.64L22.44-30.64 13-30.64Q9.73-30.64 7.38-28.29L7.38-28.29Q5.06-25.97 5.06-22.68L5.06-22.68 5.06-1.48Q5.06-0.87 4.61-0.42L4.61-0.42Q4.19 0 3.59 0L3.59 0Q2.98 0 2.53-0.42L2.53-0.42Q2.11-0.87 2.11-1.48L2.11-1.48 2.11-22.68Q2.11-27.18 5.3-30.38L5.3-30.38Q8.49-33.57 13-33.57L13-33.57 22.44-33.57Q26.95-33.57 30.14-30.38L30.14-30.38Q33.33-27.18 33.33-22.68L33.33-22.68 33.33-1.48Q33.33-0.87 32.88-0.42L32.88-0.42Q32.46 0 31.85 0L31.85 0ZM39.02 0Q38.42 0 37.97-0.42L37.97-0.42Q37.55-0.87 37.55-1.48L37.55-1.48 37.55-32.09Q37.55-32.7 37.97-33.14L37.97-33.14Q38.42-33.57 39.02-33.57L39.02-33.57Q39.63-33.57 40.05-33.14L40.05-33.14Q40.5-32.7 40.5-32.09L40.5-32.09 40.5-1.48Q40.5-0.87 40.05-0.42L40.05-0.42Q39.63 0 39.02 0L39.02 0ZM66.81-18.25L65.05-18.25Q64.42-18.25 63.99-17.82L63.99-17.82Q63.57-17.4 63.57-16.8L63.57-16.8Q63.57-16.16 63.99-15.74L63.99-15.74Q64.42-15.32 65.05-15.32L65.05-15.32 66.81-15.32Q69.37-15.32 71.17-13.5L71.17-13.5Q72.98-11.68 72.98-9.12L72.98-9.12Q72.98-6.57 71.17-4.75L71.17-4.75Q69.37-2.95 66.81-2.95L66.81-2.95 46.2-2.95Q45.59-2.95 45.14-2.5L45.14-2.5Q44.72-2.08 44.72-1.48L44.72-1.48Q44.72-0.87 45.14-0.42L45.14-0.42Q45.59 0 46.2 0L46.2 0 66.81 0Q70.58 0 73.25-2.69L73.25-2.69Q75.94-5.35 75.94-9.12L75.94-9.12Q75.94-12.89 73.25-15.58L73.25-15.58Q70.58-18.25 66.81-18.25L66.81-18.25ZM53.84-15.32L55.61-15.32Q56.21-15.32 56.66-15.74L56.66-15.74Q57.08-16.16 57.08-16.8L57.08-16.8Q57.08-17.4 56.66-17.82L56.66-17.82Q56.21-18.25 55.61-18.25L55.61-18.25 53.84-18.25Q51.28-18.25 49.46-20.07L49.46-20.07Q47.67-21.88 47.67-24.44L47.67-24.44Q47.67-27 49.46-28.82L49.46-28.82Q51.28-30.64 53.84-30.64L53.84-30.64 74.46-30.64Q75.07-30.64 75.49-31.06L75.49-31.06Q75.94-31.48 75.94-32.09L75.94-32.09Q75.94-32.7 75.49-33.14L75.49-33.14Q75.07-33.57 74.46-33.57L74.46-33.57 53.84-33.57Q50.07-33.57 47.41-30.9L47.41-30.9Q44.72-28.21 44.72-24.44L44.72-24.44Q44.72-20.67 47.41-17.98L47.41-17.98Q50.07-15.32 53.84-15.32L53.84-15.32ZM109.9-2.95L81.63-2.95Q81.03-2.95 80.58-2.5L80.58-2.5Q80.16-2.08 80.16-1.48L80.16-1.48Q80.16-0.87 80.58-0.42L80.58-0.42Q81.03 0 81.63 0L81.63 0 109.9 0Q110.5 0 110.93-0.42L110.93-0.42Q111.38-0.87 111.38-1.48L111.38-1.48Q111.38-2.08 110.93-2.5L110.93-2.5Q110.5-2.95 109.9-2.95L109.9-2.95ZM81.63-30.64L109.9-30.64Q110.5-30.64 110.93-31.06L110.93-31.06Q111.38-31.48 111.38-32.09L111.38-32.09Q111.38-32.7 110.93-33.14L110.93-33.14Q110.5-33.57 109.9-33.57L109.9-33.57 81.63-33.57Q81.03-33.57 80.58-33.14L80.58-33.14Q80.16-32.7 80.16-32.09L80.16-32.09Q80.16-31.48 80.58-31.06L80.58-31.06Q81.03-30.64 81.63-30.64L81.63-30.64ZM109.9-18.25L81.63-18.25Q81.03-18.25 80.58-17.82L80.58-17.82Q80.16-17.4 80.16-16.8L80.16-16.8Q80.16-16.16 80.58-15.74L80.58-15.74Q81.03-15.32 81.63-15.32L81.63-15.32 109.9-15.32Q110.5-15.32 110.93-15.74L110.93-15.74Q111.38-16.16 111.38-16.8L111.38-16.8Q111.38-17.4 110.93-17.82L110.93-17.82Q110.5-18.25 109.9-18.25L109.9-18.25ZM131.2-19.43Q130.6-19.43 130.15-19.01L130.15-19.01Q129.73-18.56 129.73-17.96L129.73-17.96 129.73-15.61Q129.73-15 130.15-14.55L130.15-14.55Q130.6-14.13 131.2-14.13L131.2-14.13Q131.81-14.13 132.23-14.55L132.23-14.55Q132.68-15 132.68-15.61L132.68-15.61 132.68-17.96Q132.68-18.56 132.23-19.01L132.23-19.01Q131.81-19.43 131.2-19.43L131.2-19.43ZM143.86-27.4L143.86-6.2Q143.86-4.85 142.91-3.9L142.91-3.9Q141.96-2.95 140.62-2.95L140.62-2.95 121.79-2.95Q120.45-2.95 119.5-3.9L119.5-3.9Q118.55-4.85 118.55-6.2L118.55-6.2 118.55-27.4Q118.55-28.71 119.5-29.66L119.5-29.66Q120.45-30.64 121.79-30.64L121.79-30.64 140.62-30.64Q141.96-30.64 142.91-29.66L142.91-29.66Q143.86-28.71 143.86-27.4L143.86-27.4ZM140.62-33.57L121.79-33.57Q119.23-33.57 117.41-31.75L117.41-31.75Q115.59-29.95 115.59-27.4L115.59-27.4 115.59-6.2Q115.59-3.64 117.41-1.82L117.41-1.82Q119.23 0 121.79 0L121.79 0 140.62 0Q143.17 0 144.99-1.82L144.99-1.82Q146.81-3.64 146.81-6.2L146.81-6.2 146.81-27.4Q146.81-29.95 144.99-31.75L144.99-31.75Q143.17-33.57 140.62-33.57L140.62-33.57Z" transform="translate(-2.109999895095825, 33.56999969482422)"></path></g> <!----> <!----> <!----> <!----> <!----> <!----> <!----></g></g> <!----></g></g></g><mask id="6c1a1336-604c-4000-abbb-befb4b7c624c"><g fill="white"><g><rect fill-opacity="1" stroke-width="2" x="0" y="0" width="105" height="105" class="image-rect"></rect> <svg x="0" y="0" width="105" height="105" filtersec="colorsb45977606" class="image-svg-svg primary" style="overflow: visible;"><svg xmlns="http://www.w3.org/2000/svg" xmlns:xlink="http://www.w3.org/1999/xlink" version="1.1" x="0px" y="0px" viewBox="10.399999618530273 10.399999618530273 75.19999694824219 75.19999694824219" enable-background="new 0 0 96 96" xml:space="preserve"><path d="M48,85.6c20.7,0,37.6-16.9,37.6-37.6S68.7,10.4,48,10.4S10.4,27.3,10.4,48S27.3,85.6,48,85.6z M48,12.4  c19.6,0,35.6,16,35.6,35.6S67.6,83.6,48,83.6S12.4,67.6,12.4,48S28.4,12.4,48,12.4z"></path><path d="M48,75.4c15.1,0,27.4-12.3,27.4-27.4S63.1,20.6,48,20.6S20.6,32.9,20.6,48S32.9,75.4,48,75.4z M48,22.6  C62,22.6,73.4,34,73.4,48S62,73.4,48,73.4S22.6,62,22.6,48S34,22.6,48,22.6z"></path></svg></svg> </g></g> <g transform="translate(51.150001525878906,35.71500015258789)"><rect fill="black" fill-opacity="1" x="-3.5" y="-3.5" width="151.6999969482422" height="40.56999969482422"></rect><rect fill="black" fill-opacity="1" x="-3.5" y="-3.5"></rect></g><g transform="translate(51.150001525878906,35.71500015258789)" fill="black"><g data-gra="path-name" fill-rule="" class="tp-name"><g transform="scale(1)"><g><path d="M31.85 0Q31.25 0 30.82-0.42L30.82-0.42Q30.38-0.87 30.38-1.48L30.38-1.48 30.38-22.68Q30.38-25.97 28.05-28.29L28.05-28.29Q25.71-30.64 22.44-30.64L22.44-30.64 13-30.64Q9.73-30.64 7.38-28.29L7.38-28.29Q5.06-25.97 5.06-22.68L5.06-22.68 5.06-1.48Q5.06-0.87 4.61-0.42L4.61-0.42Q4.19 0 3.59 0L3.59 0Q2.98 0 2.53-0.42L2.53-0.42Q2.11-0.87 2.11-1.48L2.11-1.48 2.11-22.68Q2.11-27.18 5.3-30.38L5.3-30.38Q8.49-33.57 13-33.57L13-33.57 22.44-33.57Q26.95-33.57 30.14-30.38L30.14-30.38Q33.33-27.18 33.33-22.68L33.33-22.68 33.33-1.48Q33.33-0.87 32.88-0.42L32.88-0.42Q32.46 0 31.85 0L31.85 0ZM39.02 0Q38.42 0 37.97-0.42L37.97-0.42Q37.55-0.87 37.55-1.48L37.55-1.48 37.55-32.09Q37.55-32.7 37.97-33.14L37.97-33.14Q38.42-33.57 39.02-33.57L39.02-33.57Q39.63-33.57 40.05-33.14L40.05-33.14Q40.5-32.7 40.5-32.09L40.5-32.09 40.5-1.48Q40.5-0.87 40.05-0.42L40.05-0.42Q39.63 0 39.02 0L39.02 0ZM66.81-18.25L65.05-18.25Q64.42-18.25 63.99-17.82L63.99-17.82Q63.57-17.4 63.57-16.8L63.57-16.8Q63.57-16.16 63.99-15.74L63.99-15.74Q64.42-15.32 65.05-15.32L65.05-15.32 66.81-15.32Q69.37-15.32 71.17-13.5L71.17-13.5Q72.98-11.68 72.98-9.12L72.98-9.12Q72.98-6.57 71.17-4.75L71.17-4.75Q69.37-2.95 66.81-2.95L66.81-2.95 46.2-2.95Q45.59-2.95 45.14-2.5L45.14-2.5Q44.72-2.08 44.72-1.48L44.72-1.48Q44.72-0.87 45.14-0.42L45.14-0.42Q45.59 0 46.2 0L46.2 0 66.81 0Q70.58 0 73.25-2.69L73.25-2.69Q75.94-5.35 75.94-9.12L75.94-9.12Q75.94-12.89 73.25-15.58L73.25-15.58Q70.58-18.25 66.81-18.25L66.81-18.25ZM53.84-15.32L55.61-15.32Q56.21-15.32 56.66-15.74L56.66-15.74Q57.08-16.16 57.08-16.8L57.08-16.8Q57.08-17.4 56.66-17.82L56.66-17.82Q56.21-18.25 55.61-18.25L55.61-18.25 53.84-18.25Q51.28-18.25 49.46-20.07L49.46-20.07Q47.67-21.88 47.67-24.44L47.67-24.44Q47.67-27 49.46-28.82L49.46-28.82Q51.28-30.64 53.84-30.64L53.84-30.64 74.46-30.64Q75.07-30.64 75.49-31.06L75.49-31.06Q75.94-31.48 75.94-32.09L75.94-32.09Q75.94-32.7 75.49-33.14L75.49-33.14Q75.07-33.57 74.46-33.57L74.46-33.57 53.84-33.57Q50.07-33.57 47.41-30.9L47.41-30.9Q44.72-28.21 44.72-24.44L44.72-24.44Q44.72-20.67 47.41-17.98L47.41-17.98Q50.07-15.32 53.84-15.32L53.84-15.32ZM109.9-2.95L81.63-2.95Q81.03-2.95 80.58-2.5L80.58-2.5Q80.16-2.08 80.16-1.48L80.16-1.48Q80.16-0.87 80.58-0.42L80.58-0.42Q81.03 0 81.63 0L81.63 0 109.9 0Q110.5 0 110.93-0.42L110.93-0.42Q111.38-0.87 111.38-1.48L111.38-1.48Q111.38-2.08 110.93-2.5L110.93-2.5Q110.5-2.95 109.9-2.95L109.9-2.95ZM81.63-30.64L109.9-30.64Q110.5-30.64 110.93-31.06L110.93-31.06Q111.38-31.48 111.38-32.09L111.38-32.09Q111.38-32.7 110.93-33.14L110.93-33.14Q110.5-33.57 109.9-33.57L109.9-33.57 81.63-33.57Q81.03-33.57 80.58-33.14L80.58-33.14Q80.16-32.7 80.16-32.09L80.16-32.09Q80.16-31.48 80.58-31.06L80.58-31.06Q81.03-30.64 81.63-30.64L81.63-30.64ZM109.9-18.25L81.63-18.25Q81.03-18.25 80.58-17.82L80.58-17.82Q80.16-17.4 80.16-16.8L80.16-16.8Q80.16-16.16 80.58-15.74L80.58-15.74Q81.03-15.32 81.63-15.32L81.63-15.32 109.9-15.32Q110.5-15.32 110.93-15.74L110.93-15.74Q111.38-16.16 111.38-16.8L111.38-16.8Q111.38-17.4 110.93-17.82L110.93-17.82Q110.5-18.25 109.9-18.25L109.9-18.25ZM131.2-19.43Q130.6-19.43 130.15-19.01L130.15-19.01Q129.73-18.56 129.73-17.96L129.73-17.96 129.73-15.61Q129.73-15 130.15-14.55L130.15-14.55Q130.6-14.13 131.2-14.13L131.2-14.13Q131.81-14.13 132.23-14.55L132.23-14.55Q132.68-15 132.68-15.61L132.68-15.61 132.68-17.96Q132.68-18.56 132.23-19.01L132.23-19.01Q131.81-19.43 131.2-19.43L131.2-19.43ZM143.86-27.4L143.86-6.2Q143.86-4.85 142.91-3.9L142.91-3.9Q141.96-2.95 140.62-2.95L140.62-2.95 121.79-2.95Q120.45-2.95 119.5-3.9L119.5-3.9Q118.55-4.85 118.55-6.2L118.55-6.2 118.55-27.4Q118.55-28.71 119.5-29.66L119.5-29.66Q120.45-30.64 121.79-30.64L121.79-30.64 140.62-30.64Q141.96-30.64 142.91-29.66L142.91-29.66Q143.86-28.71 143.86-27.4L143.86-27.4ZM140.62-33.57L121.79-33.57Q119.23-33.57 117.41-31.75L117.41-31.75Q115.59-29.95 115.59-27.4L115.59-27.4 115.59-6.2Q115.59-3.64 117.41-1.82L117.41-1.82Q119.23 0 121.79 0L121.79 0 140.62 0Q143.17 0 144.99-1.82L144.99-1.82Q146.81-3.64 146.81-6.2L146.81-6.2 146.81-27.4Q146.81-29.95 144.99-31.75L144.99-31.75Q143.17-33.57 140.62-33.57L140.62-33.57Z" transform="translate(-2.109999895095825, 33.56999969482422)"></path></g>       </g></g> </g></mask><defs v-gra="od"></defs></svg>